<?xml version="1.0" encoding="UTF-8" standalone="no" ?>
<!DOCTYPE svg PUBLIC "-//W3C//DTD SVG 1.1//EN" "http://www.w3.org/Graphics/SVG/1.1/DTD/svg11.dtd">
<svg xmlns="http://www.w3.org/2000/svg" xmlns:xlink="http://www.w3.org/1999/xlink" version="1.1" width="500" height="500" viewBox="0 0 500 500" xml:space="preserve">
<desc>Created with Fabric.js 5.3.0</desc>
<defs>
</defs>
<g transform="matrix(2.0454397372 0 0 2.0454397372 250 250)" id="o8d7x5H_d3qQ8sfECyDTj"  >
<path style="stroke: rgb(113,81,167); stroke-width: 0; stroke-dasharray: none; stroke-linecap: butt; stroke-dashoffset: 0; stroke-linejoin: miter; stroke-miterlimit: 4; fill: rgb(19,1,1); fill-rule: nonzero; opacity: 1;"  transform=" translate(0, 0)" d="M 0 -70 C 52.15198 -70 120 -50.25735 120 1.8946300000000065 C 120 54.04661000000001 52.151979999999995 70 0 70 C -52.15198 70 -120 57.08612 -120 4.934139999999999 C -120 -47.21784 -52.151979999999995 -70 0 -70 z" stroke-linecap="round" />
</g>
<g transform="matrix(1.8787323329 0 0 1.8787323329 250 250)" id="cm2EDcWwRSTGCXgbT9pPN"  >
<path style="stroke:white;stroke-width: 0; stroke-dasharray: none; stroke-linecap: butt; stroke-dashoffset: 0; stroke-linejoin: miter; stroke-miterlimit: 4; stroke: white;fill-rule: nonzero; opacity: 1;filter: url(#SVGID_0);"  transform=" translate(0, 0)" d="M 0 -70 C 52.15198 -70 120 -50.25735 120 1.8946300000000065 C 120 54.04661000000001 52.151979999999995 70 0 70 C -52.15198 70 -120 57.08612 -120 4.934139999999999 C -120 -47.21784 -52.151979999999995 -70 0 -70 z" stroke-linecap="round" />
<filter id="SVGID_0" y="-22.14285714%" height="144.28571428%" x="-20%" width="140%" >
	<feGaussianBlur in="SourceAlpha" stdDeviation="0"></feGaussianBlur>
	<feOffset dx="0" dy="-3" result="oBlur" ></feOffset>
	<feFlood flood-color="rgb(96,47,3)" flood-opacity="1"/>
	<feComposite in2="oBlur" operator="in" />
	<feMerge>
		<feMergeNode></feMergeNode>
		<feMergeNode in="SourceGraphic"></feMergeNode>
	</feMerge>
</filter>
<path style="stroke: rgb(113,81,167); stroke-width: 0; stroke-dasharray: none; stroke-linecap: butt; stroke-dashoffset: 0; stroke-linejoin: miter; stroke-miterlimit: 4; fill: rgb(65,5,8); fill-rule: nonzero; opacity: 1;"  transform=" translate(0, 0)" d="M 0 -70 C 52.15198 -70 120 -50.25735 120 1.8946300000000065 C 120 54.04661000000001 52.151979999999995 70 0 70 C -52.15198 70 -120 57.08612 -120 4.934139999999999 C -120 -47.21784 -52.151979999999995 -70 0 -70 z" stroke-linecap="round" />
</g>
<g transform="matrix(-0.3446829618 0 0 0.4767290336 187.3491288562 246.2102710887)" id="fwQi81E-9NbcnxI2bBhoR"  >
<path style="stroke: rgb(209,135,4); stroke-width: 3; stroke-dasharray: none; stroke-linecap: butt; stroke-dashoffset: 0; stroke-linejoin: miter; stroke-miterlimit: 4; fill: rgb(19,1,1); fill-opacity: 0; fill-rule: nonzero; opacity: 1;"  transform=" translate(0, 0.000005)" d="M -23.55623 -13.56217 C -23.55623 -19.08174 -17.36758 -23.55623 -9.7335 -23.55623 L 9.7335 -23.55623 L 9.7335 -23.55623 C 17.36758 -23.55623 23.55623 -19.08174 23.55623 -13.56217 L 23.55623 13.56216 L 23.55623 13.56216 C 23.55623 19.08173 17.36758 23.55622 9.7335 23.55622 L -9.7335 23.55622 L -9.7335 23.55622 C -17.36758 23.55622 -23.55623 19.08173 -23.55623 13.56216 z" stroke-linecap="round" />
</g>
<g transform="matrix(-0.1877089685 -0.3530292248 -0.4882727022 0.259619201 72.9339724178 304.7230836942)" id="IFbe3Zn8LM0uH2vJxOuAj"  >
<path style="stroke: rgb(86,113,21); stroke-width: 3; stroke-dasharray: none; stroke-linecap: butt; stroke-dashoffset: 0; stroke-linejoin: miter; stroke-miterlimit: 4; fill: rgb(19,1,1); fill-opacity: 0; fill-rule: nonzero; opacity: 1;"  transform=" translate(0.0000063881, 0.000004667)" d="M -37.71886 -13.12185 C -38.43503 -15.75972 -37.49171 -18.49124 -35.14457 -20.57609 C -32.79743 -22.66094 -29.28956 -23.88317 -25.57172 -23.91153 L 26.49611 -24.54447 L 26.49611 -24.54447 C 30.158820000000002 -24.58986 33.623290000000004 -23.344630000000002 35.78435 -21.20601 C 37.94541 -19.06739 38.53311 -16.30254 37.359970000000004 -13.79344 L 23.119640000000004 16.73413 L 23.119640000000004 16.73413 C 20.942020000000003 21.40238 14.887700000000004 24.54566 8.073740000000004 24.54566 L -15.197629999999997 24.54566 L -15.197629999999997 24.54566 C -22.421329999999998 24.546290000000003 -28.630309999999994 20.84187 -30.000639999999997 15.71385 z" stroke-linecap="round" />
</g>
<g transform="matrix(-0.3933764743 0 0 0.5440767522 250.2050155296 134.0666030263)" id="P-3zY3vTw8nGR4-TSryWT"  >
<path style="stroke: rgb(86,113,21); stroke-width: 3; stroke-dasharray: none; stroke-linecap: butt; stroke-dashoffset: 0; stroke-linejoin: miter; stroke-miterlimit: 4; fill: rgb(19,1,1); fill-opacity: 0; fill-rule: nonzero; opacity: 1;"  transform=" translate(-0.0000041036, -4.748e-7)" d="M -27.39579 -15.36568 C -26.17432 -20.556649999999998 -19.95315 -24.354039999999998 -12.670380000000002 -24.354039999999998 L 9.748019999999997 -24.354039999999998 L 9.748019999999997 -24.354039999999998 C 16.838879999999996 -24.354039999999998 23.008979999999998 -20.84593 24.680949999999996 -15.863689999999998 L 34.441689999999994 13.221890000000002 L 34.441689999999994 13.221890000000002 C 35.31602999999999 15.827300000000001 34.4965 18.578770000000002 32.21639 20.69303 C 29.936279999999996 22.807290000000002 26.445359999999997 24.05273 22.737389999999998 24.07482 L -24.08466 24.35378 L -24.08466 24.35378 C -27.22554 24.37249 -30.21653 23.38425 -32.25262 21.65502 C -34.28871 19.92579 -35.16069 17.63326 -34.63388 15.39444 z" stroke-linecap="round" />
</g>
<g transform="matrix(-0.3125697177 -0.1592622259 -0.220274674 0.4323133893 385.5866879938 160.9116540196)" id="v6cS3BxP_wEa8tQ6gDxDw"  >
<path style="stroke: rgb(86,113,21); stroke-width: 3; stroke-dasharray: none; stroke-linecap: butt; stroke-dashoffset: 0; stroke-linejoin: miter; stroke-miterlimit: 4; fill: rgb(19,1,1); fill-opacity: 0; fill-rule: nonzero; opacity: 1;"  transform=" translate(-0.0000044732, -0.000004887)" d="M -34.60991 -13.08988 C -34.60991 -18.609450000000002 -28.42126 -23.08394 -20.78718 -23.08394 L 2.1036900000000003 -23.08394 L 2.1036900000000003 -23.08394 C 8.46106 -23.08394 14.256730000000001 -20.451469999999997 17.0161 -16.31054 L 33.502930000000006 8.43094 L 33.502930000000006 8.43094 C 35.08926 10.81152 34.964420000000004 13.602640000000001 33.16865000000001 15.90414 C 31.372890000000005 18.20564 28.13340000000001 19.72635 24.494940000000007 19.975830000000002 L -20.213969999999996 23.041430000000002 L -20.213969999999996 23.041430000000002 C -23.902099999999997 23.294320000000003 -27.566739999999996 22.41102 -30.307219999999994 20.60863 C -33.04769999999999 18.806240000000003 -34.60990999999999 16.25187 -34.60990999999999 13.573330000000002 z" stroke-linecap="round" />
</g>
<g transform="matrix(-0.2867396287 0.1862108922 0.2575472201 0.3965879408 107.5602032303 169.492536511)" id="hIsitzG0hMCemje775xgO"  >
<path style="stroke: rgb(86,113,21); stroke-width: 3; stroke-dasharray: none; stroke-linecap: butt; stroke-dashoffset: 0; stroke-linejoin: miter; stroke-miterlimit: 4; fill: rgb(19,1,1); fill-opacity: 0; fill-rule: nonzero; opacity: 1;"  transform=" translate(0.0000016616, -0.0000016355)" d="M -19.08318 -16.91111 C -17.514509999999998 -21.95934 -11.230799999999999 -25.5027 -4.076819999999998 -25.37314 L 16.95456 -25.37314 L 16.95456 -25.37314 C 24.58864 -25.37314 30.77729 -20.89865 30.77729 -15.37908 L 30.77729 12.26489 L 30.77729 12.26489 C 30.83557 17.692709999999998 25.0477 22.21814 17.5589 22.600099999999998 L -18.44739 25.3283 L -18.44739 25.3283 C -22.092309999999998 25.61826 -25.70048 24.58973 -28.09102 22.57934 C -30.48156 20.568939999999998 -31.34681 17.83542 -30.40359 15.27339 z" stroke-linecap="round" />
</g>
<g transform="matrix(-0.628837587 0 0 0.8697416708 249.7010785706 353.8503656278)" id="H6kwej6xFCC892g5D5wdf"  >
<path style="stroke: rgb(86,113,21); stroke-width: 3; stroke-dasharray: none; stroke-linecap: butt; stroke-dashoffset: 0; stroke-linejoin: miter; stroke-miterlimit: 4; fill: rgb(19,1,1); fill-opacity: 0; fill-rule: nonzero; opacity: 1;"  transform=" translate(-5.135e-7, 0.0000024862)" d="M -34.14394 -13.12742 C -34.86163 -15.75971 -33.91013 -18.48602 -31.55096 -20.55695 C -29.19179 -22.62788 -25.67325 -23.8255 -21.962490000000003 -23.8206 L 22.135379999999998 -23.64004 L 22.135379999999998 -23.64004 C 25.84648 -23.624109999999998 29.34977 -22.399079999999998 31.671139999999998 -20.30558 C 33.992509999999996 -18.21208 34.88442 -15.47336 34.09887 -12.850919999999999 L 25.685159999999996 15.15268 L 25.685159999999996 15.15268 C 24.165139999999997 20.21179 17.973129999999998 23.820610000000002 10.812699999999996 23.820610000000002 L -11.623170000000005 23.820610000000002 L -11.623170000000005 23.820610000000002 C -18.835090000000005 23.820770000000003 -25.041040000000006 20.134490000000003 -26.440440000000006 15.019250000000001 z" stroke-linecap="round" />
</g>
<g transform="matrix(-0.1716715458 0.3097036669 0.4283493708 0.2374379334 440.0327415319 289.2062983903)" id="h90_3iawDcW1T7cXp8MyM"  >
<path style="stroke: rgb(86,113,21); stroke-width: 3; stroke-dasharray: none; stroke-linecap: butt; stroke-dashoffset: 0; stroke-linejoin: miter; stroke-miterlimit: 4; fill: rgb(19,1,1); fill-opacity: 0; fill-rule: nonzero; opacity: 1;"  transform=" translate(-0.000002883, 0.0000036898)" d="M -39.04432 -12.99284 C -40.17895 -15.53116 -39.58739 -18.30787 -37.4489 -20.48167 C -35.3104 -22.65547 -31.876630000000002 -23.97053 -28.18797 -24.02841 L 27.57909 -24.93095 L 27.57909 -24.93095 C 31.272000000000002 -24.99088 34.78951 -23.79354 37.0785 -21.69742 C 39.36749 -19.601300000000002 40.162279999999996 -16.849690000000002 39.2249 -14.2664 L 28.0388 16.58117 L 28.0388 16.58117 C 26.254459999999998 21.50187 20.10398 24.933149999999998 13.068159999999999 24.93309 L -10.598210000000002 24.93309 L -10.598210000000002 24.93309 C -17.45549 24.93309 -23.530450000000002 21.73601 -25.63803 17.01806 z" stroke-linecap="round" />
</g>
<g transform="matrix(-0.3559331751 0 0 0.4922891392 227.9247455745 245.820393581)" id="qx-aeDTASXekF-3A9OJwz"  >
<path style="stroke: rgb(209,135,4); stroke-width: 3; stroke-dasharray: none; stroke-linecap: butt; stroke-dashoffset: 0; stroke-linejoin: miter; stroke-miterlimit: 4; fill: rgb(19,1,1); fill-opacity: 0; fill-rule: nonzero; opacity: 1;"  transform=" translate(0, 0.000005)" d="M -23.55623 -13.56217 C -23.55623 -19.08174 -17.36758 -23.55623 -9.7335 -23.55623 L 9.7335 -23.55623 L 9.7335 -23.55623 C 17.36758 -23.55623 23.55623 -19.08174 23.55623 -13.56217 L 23.55623 13.56216 L 23.55623 13.56216 C 23.55623 19.08173 17.36758 23.55622 9.7335 23.55622 L -9.7335 23.55622 L -9.7335 23.55622 C -17.36758 23.55622 -23.55623 19.08173 -23.55623 13.56216 z" stroke-linecap="round" />
</g>
<g transform="matrix(-0.3445966385 0 0 0.4766096403 248.6375487678 246.213259902)" id="Zvi8TKBYuvM-TC-GtVBbC"  >
<path style="stroke: rgb(209,135,4); stroke-width: 3; stroke-dasharray: none; stroke-linecap: butt; stroke-dashoffset: 0; stroke-linejoin: miter; stroke-miterlimit: 4; fill: rgb(19,1,1); fill-opacity: 0; fill-rule: nonzero; opacity: 1;"  transform=" translate(0, 0.000005)" d="M -23.55623 -13.56217 C -23.55623 -19.08174 -17.36758 -23.55623 -9.7335 -23.55623 L 9.7335 -23.55623 L 9.7335 -23.55623 C 17.36758 -23.55623 23.55623 -19.08174 23.55623 -13.56217 L 23.55623 13.56216 L 23.55623 13.56216 C 23.55623 19.08173 17.36758 23.55622 9.7335 23.55622 L -9.7335 23.55622 L -9.7335 23.55622 C -17.36758 23.55622 -23.55623 19.08173 -23.55623 13.56216 z" stroke-linecap="round" />
</g>
<g transform="matrix(-0.3459785749 0 0 0.4785209886 269.0316749765 246.1653714615)" id="QDf6W9XGmw4RWbVYm9mVD"  >
<path style="stroke: rgb(209,135,4); stroke-width: 3; stroke-dasharray: none; stroke-linecap: butt; stroke-dashoffset: 0; stroke-linejoin: miter; stroke-miterlimit: 4; fill: rgb(19,1,1); fill-opacity: 0; fill-rule: nonzero; opacity: 1;"  transform=" translate(0, 0.000005)" d="M -23.55623 -13.56217 C -23.55623 -19.08174 -17.36758 -23.55623 -9.7335 -23.55623 L 9.7335 -23.55623 L 9.7335 -23.55623 C 17.36758 -23.55623 23.55623 -19.08174 23.55623 -13.56217 L 23.55623 13.56216 L 23.55623 13.56216 C 23.55623 19.08173 17.36758 23.55622 9.7335 23.55622 L -9.7335 23.55622 L -9.7335 23.55622 C -17.36758 23.55622 -23.55623 19.08173 -23.55623 13.56216 z" stroke-linecap="round" />
</g>
<g transform="matrix(-0.3460673536 0 0 0.4786437779 207.7431935425 246.162294824)" id="RWWlB779G6GAIakDjdmot"  >
<path style="stroke: rgb(209,135,4); stroke-width: 3; stroke-dasharray: none; stroke-linecap: butt; stroke-dashoffset: 0; stroke-linejoin: miter; stroke-miterlimit: 4; fill: rgb(19,1,1); fill-opacity: 0; fill-rule: nonzero; opacity: 1;"  transform=" translate(0, 0.000005)" d="M -23.55623 -13.56217 C -23.55623 -19.08174 -17.36758 -23.55623 -9.7335 -23.55623 L 9.7335 -23.55623 L 9.7335 -23.55623 C 17.36758 -23.55623 23.55623 -19.08174 23.55623 -13.56217 L 23.55623 13.56216 L 23.55623 13.56216 C 23.55623 19.08173 17.36758 23.55622 9.7335 23.55622 L -9.7335 23.55622 L -9.7335 23.55622 C -17.36758 23.55622 -23.55623 19.08173 -23.55623 13.56216 z" stroke-linecap="round" />
</g>
</svg>