<?xml version="1.0" encoding="UTF-8" standalone="no" ?>
<!DOCTYPE svg PUBLIC "-//W3C//DTD SVG 1.1//EN" "http://www.w3.org/Graphics/SVG/1.1/DTD/svg11.dtd">
<svg xmlns="http://www.w3.org/2000/svg" xmlns:xlink="http://www.w3.org/1999/xlink" version="1.1" width="250" height="250" viewBox="0 0 500 500" xml:space="preserve">
<desc>Created with Fabric.js 5.3.0</desc>
<defs>
</defs>
<g transform="matrix(1 0 0 1 239.9582621341 264.2755797198)" id="c4ikMbP5Qlj53Cvwmnah7"  >
<path style="stroke: rgb(0,0,0); stroke-width: 1; stroke-dasharray: none; stroke-linecap: butt; stroke-dashoffset: 0; stroke-linejoin: miter; stroke-miterlimit: 4; fill: rgb(0,0,0); fill-rule: nonzero; opacity: 1;"  transform=" translate(0, 0)" d="M -51.31946 -30.52274 C -52.40074 -36.7828 -50.66299 -43.2009 -46.57102 -48.060249999999996 C -42.47905 -52.91961 -36.45039 -55.72441 -30.09763 -55.72441 L 30.154060000000005 -55.72441 L 30.154060000000005 -55.72441 C 36.506730000000005 -55.72441 42.53356000000001 -52.912369999999996 46.614740000000005 -48.04407 C 50.695930000000004 -43.17577 52.412800000000004 -36.75062 51.303940000000004 -30.495479999999997 L 39.768800000000006 34.574529999999996 L 39.768800000000006 34.574529999999996 C 37.599920000000004 46.809239999999996 26.965330000000005 55.72440999999999 14.539870000000008 55.72440999999999 L -14.886149999999994 55.72440999999999 L -14.886149999999994 55.72440999999999 C -27.331199999999995 55.72440999999999 -37.96959 46.76602999999999 -40.087819999999994 34.502579999999995 z" stroke-linecap="round" />
</g>
<g transform="matrix(0.2996808142 0.2514620607 -0.2514620607 0.2996808142 232.7760891591 230.3724548626)" id="ULez45rqhfc97lh06Llma"  >
<path style="stroke: rgb(255,255,255); stroke-width: 1; stroke-dasharray: none; stroke-linecap: butt; stroke-dashoffset: 0; stroke-linejoin: miter; stroke-miterlimit: 4; fill: rgb(179,181,179); fill-rule: nonzero; opacity: 1;"  transform=" translate(-40, -40)" d="M 0 0 L 80 80 L 0 80 L 0 0 z" stroke-linecap="round" />
</g>
<g transform="matrix(-0.2996808143 0.2514620607 0.2514620607 0.2996808143 247.9982481498 230.3724548611)" id="feFbv_jRIsJY2Jv_js4Li"  >
<path style="stroke: rgb(255,255,255); stroke-width: 1; stroke-dasharray: none; stroke-linecap: butt; stroke-dashoffset: 0; stroke-linejoin: miter; stroke-miterlimit: 4; fill: rgb(179,181,179); fill-rule: nonzero; opacity: 1;"  transform=" translate(-40, -40)" d="M 0 0 L 80 80 L 0 80 L 0 0 z" stroke-linecap="round" />
</g>
<g transform="matrix(1 0 0 1 240 166.4133738602)" id="iCsvdipcHhZkoQxURKwcV"  >
<path style="stroke: rgb(0,0,0); stroke-width: 1; stroke-dasharray: none; stroke-linecap: butt; stroke-dashoffset: 0; stroke-linejoin: miter; stroke-miterlimit: 4; fill: rgb(72,83,86); fill-rule: nonzero; opacity: 1;"  transform=" translate(-42.8064808004, -42.8064808004)" d="M 42.80648 0 C 66.43566 0 85.61296 19.17731 85.61296 42.80648 C 85.61296 66.43566 66.43565000000001 85.61296 42.80648 85.61296 C 19.1773 85.61296 0 66.43565000000001 0 42.80648 C 0 19.1773 19.17731 0 42.80648 0 z" stroke-linecap="round" />
</g>
<g transform="matrix(-0.2052642314 0.5961306136 0.1705915461 0.0587393799 244.9587344719 276.5222347394)" id="IYbmL4rpAk5sVnN4cHCv4"  >
<path style="stroke: rgb(255,255,255); stroke-width: 1; stroke-dasharray: none; stroke-linecap: butt; stroke-dashoffset: 0; stroke-linejoin: miter; stroke-miterlimit: 4; fill: rgb(179,181,179); fill-rule: nonzero; opacity: 1;"  transform=" translate(-40, -40)" d="M 0 0 L 80 80 L 0 80 L 0 0 z" stroke-linecap="round" />
</g>
<g transform="matrix(0.2052642314 0.5961306137 -0.1705915461 0.0587393799 236.2975978493 276.0159450876)" id="pXdH0iW0YpcL17B_TxMcX"  >
<path style="stroke: rgb(255,255,255); stroke-width: 1; stroke-dasharray: none; stroke-linecap: butt; stroke-dashoffset: 0; stroke-linejoin: miter; stroke-miterlimit: 4; fill: rgb(179,181,179); fill-rule: nonzero; opacity: 1;"  transform=" translate(-40, -40)" d="M 0 0 L 80 80 L 0 80 L 0 0 z" stroke-linecap="round" />
</g>
<g transform="matrix(0.0932081524 0 0 0.0172178719 213.8251496531 243.7952500583)" id="lIvN2gr50FnlQkkMpjfx3"  >
<path style="stroke: rgb(255,255,255); stroke-width: 2; stroke-dasharray: none; stroke-linecap: butt; stroke-dashoffset: 0; stroke-linejoin: miter; stroke-miterlimit: 4; fill: rgb(0,0,0); fill-rule: nonzero; opacity: 1;"  transform=" translate(0, 0)" d="M -45.846 -45.846 L 45.846 -45.846 L 45.846 45.846 L -45.846 45.846 z" stroke-linecap="round" />
</g>
</svg>